<svg width="284" height="40" viewBox="0 0 284 40" fill="none" xmlns="http://www.w3.org/2000/svg">
<g clip-path="url(#clip0_209_2093)">
<path d="M181.035 0.697709C160.838 1.32266 140.655 2.37085 120.504 3.84229C102.219 4.16634 83.9297 4.49039 65.6442 4.81443C45.5797 5.17155 25.5153 5.52535 5.45408 5.88247C3.5131 5.91553 0.507397 7.34068 0.209802 9.49328C-0.117552 11.8674 2.81871 12.2642 4.47202 12.2378C17.51 12.0063 30.5479 11.7748 43.5858 11.5434C38.1597 12.2345 32.7402 12.952 27.3207 13.7026C25.4425 13.9638 22.8204 14.8434 22.2219 16.8968C21.6862 18.7286 23.3593 20.0281 25.135 20.0612C55.2449 20.577 85.3582 21.0962 115.468 21.612C121.876 21.7211 128.285 21.8335 134.693 21.9426C125.474 22.9512 116.268 24.1118 107.089 25.4245C92.6955 27.4878 78.3614 29.9347 64.0901 32.7222C62.5492 33.0231 60.3636 34.3722 60.1288 36.1015C59.9006 37.7548 61.7226 38.8361 63.1841 38.8493C97.4273 39.1469 131.671 39.4478 165.914 39.7454C175.569 39.8281 185.221 39.914 194.876 39.9967C197.088 40.0165 199.925 39.385 201.04 37.2126C202.035 35.2683 200.17 33.6513 198.269 33.6348C165.305 33.3471 132.342 33.0595 99.3782 32.7718C100.297 32.6329 101.213 32.4907 102.133 32.3551C114.589 30.5101 127.088 28.946 139.613 27.6664C164.677 25.1071 189.854 23.6819 215.047 23.4009C216.161 23.3876 217.288 23.381 218.413 23.3744C231.183 23.5926 243.95 23.8142 256.72 24.0324C258.929 24.0688 261.776 23.4075 262.883 21.2483C263.902 19.2643 261.997 17.7466 260.112 17.6705C247.081 17.1481 234.036 16.9232 220.995 16.9993C203.923 16.705 186.851 16.414 169.779 16.1197C139.669 15.6039 109.556 15.0847 79.446 14.5689C77.0189 14.5259 74.5886 14.4863 72.1615 14.4433C87.9274 12.7668 103.72 11.3483 119.532 10.1943C152.495 9.60901 185.462 9.02705 218.426 8.44178C238.49 8.08467 258.555 7.73086 278.616 7.37374C280.458 7.34068 283.163 6.07756 283.715 4.17956C284.257 2.32456 282.571 1.08127 280.802 1.01514C247.56 -0.221528 214.279 -0.330646 181.035 0.697709Z" fill="#ED553B"/>
</g>
<defs>
<clipPath id="clip0_209_2093">
<rect width="283.634" height="40" fill="white" transform="translate(0.183105)"/>
</clipPath>
</defs>
</svg>
