<svg width="128" height="50" viewBox="0 0 128 50" fill="none" xmlns="http://www.w3.org/2000/svg">
<circle cx="24.8595" cy="25.0475" r="23.8566" stroke="#E5E3DA"/>
<circle cx="102.8" cy="25.0475" r="23.8566" fill="#ED553B" stroke="#ED553B"/>
<path d="M20.5938 19.4812L15.1167 25.0484L20.5938 30.6157L21.7398 29.4242L18.2505 25.877H34.602V24.2198H18.2497L21.7398 20.6727L20.5938 19.4812Z" fill="#8C8C8C"/>
<path d="M107.425 19.1306L107.065 18.7642L106.709 19.1345L105.561 20.3268L105.223 20.6774L105.565 21.0243L108.218 23.7198H93.0586H92.5586V24.2198V25.877V26.377H93.0586H108.219L105.566 29.0735L105.224 29.4203L105.562 29.7709L106.709 30.9624L107.065 31.3327L107.425 30.9662L112.9 25.399L113.245 25.0484L112.9 24.6978L107.425 19.1306Z" fill="white" stroke="white"/>
</svg>
